<svg xmlns="http://www.w3.org/2000/svg" xmlns:xlink="http://www.w3.org/1999/xlink" viewBox="0,0,255.99263,255.99263" width="1600px" height="1600px" fill-rule="nonzero"><g fill="none" fill-rule="nonzero" stroke="none" stroke-width="1" stroke-linecap="butt" stroke-linejoin="miter" stroke-miterlimit="10" stroke-dasharray="" stroke-dashoffset="0" font-family="none" font-weight="none" font-size="none" text-anchor="none" style="mix-blend-mode: normal"><g transform="scale(2.56,2.56)"><path d="M13,27c-1.105,0 -2,0.895 -2,2c0,1.105 0.895,2 2,2c1.105,0 2,-0.895 2,-2c0,-1.105 -0.895,-2 -2,-2z" fill-opacity="0" fill="#78a0cf"></path><path d="M77,12c-0.551,0 -1,0.449 -1,1c0,0.551 0.449,1 1,1c0.551,0 1,-0.449 1,-1c0,-0.551 -0.449,-1 -1,-1z" fill-opacity="0" fill="#f11919"></path><path d="M50,13c-20.434,0 -37,16.566 -37,37c0,20.434 16.566,37 37,37c20.434,0 37,-16.566 37,-37c0,-20.434 -16.566,-37 -37,-37z" fill-opacity="0" fill="#6cb6ff"></path><path d="M83,11c-2.211,0 -4,1.789 -4,4c0,2.211 1.789,4 4,4c2.211,0 4,-1.789 4,-4c0,-2.211 -1.789,-4 -4,-4z" fill-opacity="0" fill="#f11919"></path><path d="M87,22c-1.105,0 -2,0.895 -2,2c0,1.105 0.895,2 2,2c1.105,0 2,-0.895 2,-2c0,-1.105 -0.895,-2 -2,-2z" fill-opacity="0" fill="#78a0cf"></path><path d="M81,74c-1.105,0 -2,0.895 -2,2c0,1.105 0.895,2 2,2c1.105,0 2,-0.895 2,-2c0,-1.105 -0.895,-2 -2,-2zM15,59c-2.211,0 -4,1.789 -4,4c0,2.211 1.789,4 4,4c2.211,0 4,-1.789 4,-4c0,-2.211 -1.789,-4 -4,-4z" fill-opacity="0" fill="#fbcd59"></path><path d="M25,85c-1.105,0 -2,0.895 -2,2c0,1.105 0.895,2 2,2c1.105,0 2,-0.895 2,-2c0,-1.105 -0.895,-2 -2,-2z" fill-opacity="0" fill="#78a0cf"></path><path d="M17.5,42c-1.379,0 -2.5,1.121 -2.5,2.5c0,1.379 1.121,2.5 2.5,2.5c1.379,0 2.5,-1.121 2.5,-2.5c0,-1.379 -1.121,-2.5 -2.5,-2.5z" fill-opacity="0" fill="#ffffff"></path><path d="M21,65c-0.551,0 -1,0.449 -1,1c0,0.551 0.449,1 1,1c0.551,0 1,-0.449 1,-1c0,-0.551 -0.449,-1 -1,-1z" fill-opacity="0" fill="#f11919"></path><path d="M82,37c-0.551,0 -1,0.449 -1,1c0,0.551 0.449,1 1,1c0.551,0 1,-0.449 1,-1c0,-0.551 -0.449,-1 -1,-1z" fill-opacity="0" fill="#ffffff"></path><path d="M70.877,72.993h-0.42v-0.62l-2.52,-3.88l-4.23,-6.5l4.3,-21.49l2.32,-11.63l0.67,-0.41l7,11.19c0.13,0.22 0.18,0.48 0.13,0.73l-6.27,31.8c-0.09,0.47 -0.5,0.81 -0.98,0.81z" fill="#836f61"></path><path d="M67.937,68.493l2.52,3.88v0.62h-12.24c-0.32,0 -0.63,-0.16 -0.81,-0.42l-4.52,-6.33l0.69,-0.5l-2.37,-3.75h12.5z" fill="#bd977c"></path><path d="M54.707,47.493l-2.86,11.75h-0.02l-3.25,-4.63v-0.12l1.88,-7z" fill="#836f61"></path><path d="M51.207,61.993l2.37,3.75l-0.69,0.5l-0.18,-0.25h-3.88v-0.62l-5.61,-7.88h-0.01l-2.13,-3h7.5v0.12l3.25,4.63h0.02l-0.64,2.63z" fill="#bd977c"></path><path d="M48.827,65.373v0.62h-0.12l-2.75,6.39c-0.09,0.23 -0.27,0.41 -0.49,0.51l-0.26,-0.4l-10,-10.5l1.02,-3.49l1.17,-3.99l2.06,-7.02h3.75l-2.13,7l2.13,3h0.01z" fill="#836f61"></path><path d="M35.207,61.993l10,10.5l0.26,0.4c-0.13,0.07 -0.27,0.1 -0.42,0.1h-11.93c-0.27,0 -0.52,-0.11 -0.71,-0.29l-10.2,-10.21l0.5,-0.5z" fill="#bd977c"></path><path d="M22.707,61.993l-0.5,0.5l-0.07,-0.07c-0.27,-0.26 -0.36,-0.65 -0.25,-1.01l3.59,-11.09l0.6,0.2h5.13l-1.25,3.97l-1.25,4h7.5l0.02,0.01l-1.02,3.49z" fill="#c0d078"></path><path d="M37.397,54.513l-1.17,3.99l-0.02,-0.01h-7.5l1.25,-4h7.37z" fill="#c0d078"></path><path d="M44.957,27.993v0.62l-2,6.88h-11.63l-0.95,-0.31l2.1,-6.5c0.13,-0.41 0.52,-0.69 0.95,-0.69z" fill="#c0d078"></path><path d="M45.207,27.993c0.31,0 0.61,0.15 0.8,0.4l5.7,7.6l0.75,0.5l-1.08,3.98l-0.55,2.02h-6.62l2,-7h-3.25l2,-6.88v-0.62z" fill="#836f61"></path><path d="M62.827,34.493l-1.25,6h-10.12l-0.08,-0.02l1.08,-3.98l-0.75,-0.5l0.72,-1.45c0.17,-0.34 0.51,-0.55 0.89,-0.55h3.13l0.63,0.5z" fill="#c0d078"></path><path d="M70.147,27.993c0.35,0 0.67,0.18 0.85,0.47l-0.67,0.41l-2.32,11.63l-0.05,-0.01h-6.38l1.25,-6h-5.75l-0.63,-0.5l1.09,-5.21c0.1,-0.46 0.5,-0.79 0.98,-0.79z" fill="#c0d078"></path><path d="M68.007,40.503l-4.3,21.49h-12.5v-0.12l0.64,-2.63l2.86,-11.75h-4.25l-1.88,7h-7.5l2.13,-7h-3.75l-2.06,7.02l-0.07,-0.02h-7.37l1.25,-3.97h-5.13l-0.6,-0.2l4.9,-15.14l0.95,0.31h11.63h3.25l-2,7h6.62l0.55,-2.02l0.08,0.02h10.12h6.38z" fill="#c0d078"></path><path d="M58.92,29.075h0.005h-0.005M33.824,29.116h0.005h-0.005M69.94,29.393l6.795,10.873l-6.17,31.327h-12.129l-4.581,-6.414c-0.263,-0.368 -0.687,-0.586 -1.139,-0.586h-4c-0.56,0 -1.066,0.334 -1.287,0.849l-2.636,6.151h-11.497l-9.984,-9.984l10.423,-32.216h11.281l5.58,7.44c0.266,0.354 0.682,0.56 1.12,0.56c0.042,0 0.084,-0.002 0.126,-0.006c0.483,-0.044 0.909,-0.334 1.126,-0.768l0.613,-1.226h2.877c0.663,0 1.234,-0.464 1.37,-1.113l1.024,-4.887h11.088M53.692,35.172h0.005h-0.005M70.162,27.993h-11.634c-0.473,0 -0.882,0.332 -0.979,0.795l-1.09,5.205h-3.125c-0.379,0 -0.725,0.214 -0.894,0.553l-0.724,1.447l-5.7,-7.6c-0.189,-0.252 -0.485,-0.4 -0.8,-0.4h-11.772c-0.434,0 -0.818,0.28 -0.951,0.692l-10.589,32.726c-0.116,0.357 -0.021,0.749 0.244,1.015l10.274,10.274c0.189,0.188 0.443,0.293 0.708,0.293h11.926c0.4,0 0.762,-0.238 0.919,-0.606l2.741,-6.394h4l4.701,6.581c0.188,0.263 0.491,0.419 0.814,0.419h12.663c0.478,0 0.889,-0.338 0.981,-0.807l6.265,-31.805c0.049,-0.249 0.001,-0.508 -0.133,-0.723l-6.997,-11.195c-0.183,-0.292 -0.503,-0.47 -0.848,-0.47z" fill="#472b29"></path><path d="M45.216,72.993c-0.132,0 -0.264,-0.052 -0.362,-0.155l-10,-10.5c-0.19,-0.2 -0.183,-0.516 0.018,-0.707c0.2,-0.189 0.516,-0.184 0.707,0.018l10,10.5c0.19,0.2 0.183,0.516 -0.018,0.707c-0.097,0.091 -0.221,0.137 -0.345,0.137z" fill="#472b29"></path><path d="M28.341,62.493h-5.625c-0.276,0 -0.5,-0.224 -0.5,-0.5c0,-0.276 0.224,-0.5 0.5,-0.5h5.625c0.276,0 0.5,0.224 0.5,0.5c0,0.276 -0.224,0.5 -0.5,0.5z" fill="#472b29"></path><path d="M35.341,62.493h-3c-0.276,0 -0.5,-0.224 -0.5,-0.5c0,-0.276 0.224,-0.5 0.5,-0.5h3c0.276,0 0.5,0.224 0.5,0.5c0,0.276 -0.224,0.5 -0.5,0.5z" fill="#472b29"></path><path d="M37.341,54.993h-4c-0.276,0 -0.5,-0.224 -0.5,-0.5c0,-0.276 0.224,-0.5 0.5,-0.5h4c0.276,0 0.5,0.224 0.5,0.5c0,0.276 -0.224,0.5 -0.5,0.5z" fill="#472b29"></path><path d="M50.841,42.993h-6.625c-0.157,0 -0.305,-0.074 -0.399,-0.199c-0.094,-0.125 -0.125,-0.288 -0.082,-0.438l1.818,-6.363h-7.212c-0.276,0 -0.5,-0.224 -0.5,-0.5c0,-0.276 0.224,-0.5 0.5,-0.5h7.875c0.157,0 0.305,0.074 0.399,0.199c0.094,0.125 0.125,0.288 0.082,0.438l-1.818,6.363h5.579l1.525,-5.631c0.072,-0.267 0.345,-0.426 0.613,-0.352c0.267,0.072 0.424,0.347 0.352,0.613l-1.625,6c-0.059,0.219 -0.256,0.37 -0.482,0.37z" fill="#472b29"></path><path d="M62.841,34.993h-5.75c-0.276,0 -0.5,-0.224 -0.5,-0.5c0,-0.276 0.224,-0.5 0.5,-0.5h5.75c0.276,0 0.5,0.224 0.5,0.5c0,0.276 -0.224,0.5 -0.5,0.5z" fill="#472b29"></path><path d="M56.341,40.993h-4.875c-0.276,0 -0.5,-0.224 -0.5,-0.5c0,-0.276 0.224,-0.5 0.5,-0.5h4.875c0.276,0 0.5,0.224 0.5,0.5c0,0.276 -0.224,0.5 -0.5,0.5z" fill="#472b29"></path><path d="M67.841,40.993h-8.5c-0.276,0 -0.5,-0.224 -0.5,-0.5c0,-0.276 0.224,-0.5 0.5,-0.5h8.5c0.276,0 0.5,0.224 0.5,0.5c0,0.276 -0.224,0.5 -0.5,0.5z" fill="#472b29"></path><path d="M48.841,65.868c-0.156,0 -0.31,-0.073 -0.408,-0.21l-7.75,-10.875c-0.108,-0.152 -0.123,-0.353 -0.037,-0.519c0.086,-0.167 0.258,-0.271 0.445,-0.271h7.5c0.276,0 0.5,0.224 0.5,0.5c0,0.276 -0.224,0.5 -0.5,0.5h-6.53l7.187,10.085c0.16,0.225 0.108,0.537 -0.117,0.697c-0.088,0.063 -0.189,0.093 -0.29,0.093z" fill="#472b29"></path><path d="M51.841,59.743c-0.157,0 -0.312,-0.074 -0.41,-0.212l-3.25,-4.625c-0.159,-0.226 -0.104,-0.538 0.122,-0.697c0.226,-0.159 0.538,-0.104 0.697,0.122l3.25,4.625c0.159,0.226 0.104,0.538 -0.122,0.697c-0.087,0.061 -0.187,0.09 -0.287,0.09z" fill="#472b29"></path><path d="M33.341,58.993h-4.625c-0.159,0 -0.309,-0.076 -0.403,-0.204c-0.094,-0.128 -0.122,-0.294 -0.074,-0.446l2.296,-7.318h-4.444c-0.276,0 -0.5,-0.224 -0.5,-0.5c0,-0.276 0.224,-0.5 0.5,-0.5h5.125c0.159,0 0.309,0.076 0.403,0.204c0.094,0.128 0.122,0.294 0.074,0.446l-2.296,7.318h3.944c0.276,0 0.5,0.224 0.5,0.5c0,0.276 -0.224,0.5 -0.5,0.5z" fill="#472b29"></path><path d="M42.966,35.993c-0.046,0 -0.093,-0.006 -0.14,-0.02c-0.265,-0.077 -0.417,-0.354 -0.34,-0.62l2,-6.875c0.077,-0.266 0.353,-0.418 0.62,-0.34c0.265,0.077 0.417,0.354 0.34,0.62l-2,6.875c-0.063,0.218 -0.263,0.36 -0.48,0.36z" fill="#472b29"></path><path d="M35.216,62.493c-0.046,0 -0.094,-0.006 -0.141,-0.02c-0.265,-0.078 -0.417,-0.355 -0.339,-0.621l4.25,-14.5c0.078,-0.265 0.356,-0.415 0.621,-0.339c0.265,0.078 0.417,0.355 0.339,0.621l-4.25,14.5c-0.064,0.218 -0.264,0.359 -0.48,0.359z" fill="#472b29"></path><path d="M53.591,66.243c-0.166,0 -0.328,-0.082 -0.423,-0.232l-2.375,-3.75c-0.098,-0.154 -0.104,-0.349 -0.016,-0.509c0.088,-0.16 0.256,-0.259 0.438,-0.259h3.126c0.276,0 0.5,0.224 0.5,0.5c0,0.276 -0.224,0.5 -0.5,0.5h-2.216l1.889,2.982c0.148,0.233 0.079,0.542 -0.155,0.69c-0.083,0.053 -0.176,0.078 -0.268,0.078z" fill="#472b29"></path><path d="M58.341,62.493h-2c-0.276,0 -0.5,-0.224 -0.5,-0.5c0,-0.276 0.224,-0.5 0.5,-0.5h2c0.276,0 0.5,0.224 0.5,0.5c0,0.276 -0.224,0.5 -0.5,0.5z" fill="#472b29"></path><path d="M63.716,62.493h-2.375c-0.276,0 -0.5,-0.224 -0.5,-0.5c0,-0.276 0.224,-0.5 0.5,-0.5h1.965l6.544,-32.723c0.054,-0.271 0.312,-0.448 0.588,-0.392c0.271,0.054 0.446,0.317 0.392,0.588l-6.625,33.125c-0.046,0.234 -0.251,0.402 -0.489,0.402z" fill="#472b29"></path><path d="M61.591,40.993c-0.034,0 -0.068,-0.003 -0.103,-0.011c-0.271,-0.056 -0.444,-0.321 -0.387,-0.591l1.25,-6c0.056,-0.271 0.315,-0.446 0.591,-0.387c0.271,0.056 0.444,0.321 0.387,0.591l-1.25,6c-0.048,0.236 -0.256,0.398 -0.488,0.398z" fill="#472b29"></path><path d="M70.466,72.868c-0.164,0 -0.324,-0.08 -0.419,-0.228l-6.75,-10.375c-0.151,-0.231 -0.085,-0.541 0.146,-0.691c0.231,-0.151 0.541,-0.084 0.691,0.146l6.75,10.375c0.151,0.231 0.085,0.541 -0.146,0.691c-0.084,0.056 -0.178,0.082 -0.272,0.082z" fill="#472b29"></path><path d="M51.216,62.368c-0.039,0 -0.079,-0.004 -0.119,-0.014c-0.269,-0.065 -0.433,-0.336 -0.368,-0.604l3.5,-14.375c0.065,-0.269 0.335,-0.435 0.604,-0.368c0.269,0.065 0.433,0.336 0.368,0.604l-3.5,14.375c-0.055,0.229 -0.259,0.382 -0.485,0.382z" fill="#472b29"></path><path d="M48.591,54.993c-0.043,0 -0.086,-0.005 -0.13,-0.017c-0.267,-0.071 -0.425,-0.346 -0.354,-0.612l1.875,-7c0.06,-0.219 0.257,-0.371 0.484,-0.371h4.25c0.276,0 0.5,0.224 0.5,0.5c0,0.276 -0.224,0.5 -0.5,0.5h-3.866l-1.776,6.629c-0.06,0.224 -0.262,0.371 -0.483,0.371z" fill="#472b29"></path><path d="M41.091,54.993c-0.048,0 -0.097,-0.007 -0.145,-0.021c-0.265,-0.08 -0.414,-0.359 -0.333,-0.624l1.929,-6.355h-3.076c-0.276,0 -0.5,-0.224 -0.5,-0.5c0,-0.276 0.224,-0.5 0.5,-0.5h3.75c0.158,0 0.307,0.075 0.402,0.202c0.094,0.127 0.123,0.292 0.077,0.443l-2.125,7c-0.066,0.216 -0.264,0.355 -0.479,0.355z" fill="#472b29"></path><path d="M38.341,65.993h-4.125c-0.276,0 -0.5,-0.224 -0.5,-0.5c0,-0.276 0.224,-0.5 0.5,-0.5h4.125c0.276,0 0.5,0.224 0.5,0.5c0,0.276 -0.224,0.5 -0.5,0.5z" fill="#472b29"></path><path d="M46.216,57.993h-3c-0.276,0 -0.5,-0.224 -0.5,-0.5c0,-0.276 0.224,-0.5 0.5,-0.5h3c0.276,0 0.5,0.224 0.5,0.5c0,0.276 -0.224,0.5 -0.5,0.5z" fill="#472b29"></path><path d="M35.341,35.993h-4.375c-0.276,0 -0.5,-0.224 -0.5,-0.5c0,-0.276 0.224,-0.5 0.5,-0.5h4.375c0.276,0 0.5,0.224 0.5,0.5c0,0.276 -0.224,0.5 -0.5,0.5z" fill="#472b29"></path><path d="M70.091,65.618c-0.017,0 -0.034,-0.001 -0.052,-0.005c-0.135,-0.028 -0.222,-0.161 -0.193,-0.296l3.625,-17.375c0.028,-0.135 0.16,-0.224 0.296,-0.193c0.135,0.028 0.222,0.161 0.193,0.296l-3.625,17.375c-0.024,0.117 -0.128,0.198 -0.244,0.198z" fill="#472b29"></path><path d="M74.216,45.868c-0.017,0 -0.033,-0.001 -0.049,-0.005c-0.136,-0.027 -0.224,-0.159 -0.196,-0.294l0.875,-4.375c0.027,-0.136 0.165,-0.225 0.294,-0.196c0.136,0.027 0.224,0.159 0.196,0.294l-0.875,4.375c-0.024,0.119 -0.128,0.201 -0.245,0.201z" fill="#472b29"></path></g></g></svg>